<svg xmlns="http://www.w3.org/2000/svg" viewBox="0 0 480 300" width="480" height="300" role="img" aria-label="L'Aquila">
  <defs>
    <linearGradient id="bg" x1="0" y1="0" x2="0" y2="1">
      <stop offset="0%" stop-color="#f8f4ed"/>
      <stop offset="100%" stop-color="#ebe4d8"/>
    </linearGradient>
  </defs>
  <rect width="480" height="300" fill="url(#bg)"/>
  <g fill="#a9967f" opacity="0.22"><path d="M0 300 L0 246 L54 200 L118 232 L186 194 L254 230 L320 198 L392 234 L446 206 L480 240 L480 300 Z"/></g>
  <g fill="#6d5a48"><defs><pattern id="cm" width="26" height="26" patternUnits="userSpaceOnUse" patternTransform="rotate(45 240.0 188.0)"><rect width="26" height="26" fill="#6d5a48"/><rect width="13" height="13" fill="#f8f4ed"/><rect x="13" y="13" width="13" height="13" fill="#f8f4ed"/></pattern></defs><rect x="122" y="76" width="236" height="224" fill="url(#cm)"/><rect x="216.5" y="120.5" width="59.0" height="59.0" fill="#6d5a48"/><rect x="219.5" y="123.5" width="53.0" height="53.0" fill="none" stroke="#f8f4ed" stroke-width="1.3"/><circle cx="246" cy="150" r="21.5" fill="#f8f4ed"/><circle cx="246" cy="150" r="19.7" fill="#6d5a48"/><circle cx="246" cy="150" r="18.5" fill="#f8f4ed"/><rect x="243.87" y="133.35" width="4.25" height="7.40" rx="2.13" fill="#6d5a48" transform="rotate(0.0 246.00 137.05)"/><rect x="248.83" y="134.34" width="4.25" height="7.40" rx="2.13" fill="#6d5a48" transform="rotate(22.5 250.96 138.04)"/><rect x="253.03" y="137.14" width="4.25" height="7.40" rx="2.13" fill="#6d5a48" transform="rotate(45.0 255.16 140.84)"/><rect x="255.84" y="141.34" width="4.25" height="7.40" rx="2.13" fill="#6d5a48" transform="rotate(67.5 257.96 145.04)"/><rect x="256.82" y="146.30" width="4.25" height="7.40" rx="2.13" fill="#6d5a48" transform="rotate(90.0 258.95 150.00)"/><rect x="255.84" y="151.26" width="4.25" height="7.40" rx="2.13" fill="#6d5a48" transform="rotate(112.5 257.96 154.96)"/><rect x="253.03" y="155.46" width="4.25" height="7.40" rx="2.13" fill="#6d5a48" transform="rotate(135.0 255.16 159.16)"/><rect x="248.83" y="158.26" width="4.25" height="7.40" rx="2.13" fill="#6d5a48" transform="rotate(157.5 250.96 161.96)"/><rect x="243.87" y="159.25" width="4.25" height="7.40" rx="2.13" fill="#6d5a48" transform="rotate(180.0 246.00 162.95)"/><rect x="238.92" y="158.26" width="4.25" height="7.40" rx="2.13" fill="#6d5a48" transform="rotate(202.5 241.04 161.96)"/><rect x="234.72" y="155.46" width="4.25" height="7.40" rx="2.13" fill="#6d5a48" transform="rotate(225.0 236.84 159.16)"/><rect x="231.91" y="151.26" width="4.25" height="7.40" rx="2.13" fill="#6d5a48" transform="rotate(247.5 234.04 154.96)"/><rect x="230.92" y="146.30" width="4.25" height="7.40" rx="2.13" fill="#6d5a48" transform="rotate(270.0 233.05 150.00)"/><rect x="231.91" y="141.34" width="4.25" height="7.40" rx="2.13" fill="#6d5a48" transform="rotate(292.5 234.04 145.04)"/><rect x="234.72" y="137.14" width="4.25" height="7.40" rx="2.13" fill="#6d5a48" transform="rotate(315.0 236.84 140.84)"/><rect x="238.92" y="134.34" width="4.25" height="7.40" rx="2.13" fill="#6d5a48" transform="rotate(337.5 241.04 138.04)"/><rect x="244.15" y="142.23" width="3.70" height="4.44" rx="1.85" fill="#6d5a48" transform="rotate(0.0 246.00 144.45)"/><rect x="248.07" y="143.86" width="3.70" height="4.44" rx="1.85" fill="#6d5a48" transform="rotate(45.0 249.92 146.08)"/><rect x="249.70" y="147.78" width="3.70" height="4.44" rx="1.85" fill="#6d5a48" transform="rotate(90.0 251.55 150.00)"/><rect x="248.07" y="151.70" width="3.70" height="4.44" rx="1.85" fill="#6d5a48" transform="rotate(135.0 249.92 153.92)"/><rect x="244.15" y="153.33" width="3.70" height="4.44" rx="1.85" fill="#6d5a48" transform="rotate(180.0 246.00 155.55)"/><rect x="240.23" y="151.70" width="3.70" height="4.44" rx="1.85" fill="#6d5a48" transform="rotate(225.0 242.08 153.92)"/><rect x="238.60" y="147.78" width="3.70" height="4.44" rx="1.85" fill="#6d5a48" transform="rotate(270.0 240.45 150.00)"/><rect x="240.23" y="143.86" width="3.70" height="4.44" rx="1.85" fill="#6d5a48" transform="rotate(315.0 242.08 146.08)"/><circle cx="246" cy="150" r="2.4" fill="#6d5a48"/><rect x="147.9" y="143.9" width="30.3" height="30.3" fill="#6d5a48"/><rect x="150.9" y="146.9" width="24.3" height="24.3" fill="none" stroke="#f8f4ed" stroke-width="1.3"/><circle cx="163" cy="159" r="11.1" fill="#f8f4ed"/><circle cx="163" cy="159" r="9.3" fill="#6d5a48"/><circle cx="163" cy="159" r="8.1" fill="#f8f4ed"/><rect x="162.06" y="151.67" width="1.87" height="3.26" rx="0.94" fill="#6d5a48" transform="rotate(0.0 163.00 153.30)"/><rect x="166.09" y="153.34" width="1.87" height="3.26" rx="0.94" fill="#6d5a48" transform="rotate(45.0 167.03 154.97)"/><rect x="167.76" y="157.37" width="1.87" height="3.26" rx="0.94" fill="#6d5a48" transform="rotate(90.0 168.70 159.00)"/><rect x="166.09" y="161.40" width="1.87" height="3.26" rx="0.94" fill="#6d5a48" transform="rotate(135.0 167.03 163.03)"/><rect x="162.06" y="163.07" width="1.87" height="3.26" rx="0.94" fill="#6d5a48" transform="rotate(180.0 163.00 164.70)"/><rect x="158.03" y="161.40" width="1.87" height="3.26" rx="0.94" fill="#6d5a48" transform="rotate(225.0 158.97 163.03)"/><rect x="156.37" y="157.37" width="1.87" height="3.26" rx="0.94" fill="#6d5a48" transform="rotate(270.0 157.30 159.00)"/><rect x="158.03" y="153.34" width="1.87" height="3.26" rx="0.94" fill="#6d5a48" transform="rotate(315.0 158.97 154.97)"/><circle cx="163" cy="159" r="1.1" fill="#6d5a48"/><rect x="306.9" y="143.9" width="30.3" height="30.3" fill="#6d5a48"/><rect x="309.9" y="146.9" width="24.3" height="24.3" fill="none" stroke="#f8f4ed" stroke-width="1.3"/><circle cx="322" cy="159" r="11.1" fill="#f8f4ed"/><circle cx="322" cy="159" r="9.3" fill="#6d5a48"/><circle cx="322" cy="159" r="8.1" fill="#f8f4ed"/><rect x="321.06" y="151.67" width="1.87" height="3.26" rx="0.94" fill="#6d5a48" transform="rotate(0.0 322.00 153.30)"/><rect x="325.09" y="153.34" width="1.87" height="3.26" rx="0.94" fill="#6d5a48" transform="rotate(45.0 326.03 154.97)"/><rect x="326.76" y="157.37" width="1.87" height="3.26" rx="0.94" fill="#6d5a48" transform="rotate(90.0 327.70 159.00)"/><rect x="325.09" y="161.40" width="1.87" height="3.26" rx="0.94" fill="#6d5a48" transform="rotate(135.0 326.03 163.03)"/><rect x="321.06" y="163.07" width="1.87" height="3.26" rx="0.94" fill="#6d5a48" transform="rotate(180.0 322.00 164.70)"/><rect x="317.03" y="161.40" width="1.87" height="3.26" rx="0.94" fill="#6d5a48" transform="rotate(225.0 317.97 163.03)"/><rect x="315.37" y="157.37" width="1.87" height="3.26" rx="0.94" fill="#6d5a48" transform="rotate(270.0 316.30 159.00)"/><rect x="317.03" y="153.34" width="1.87" height="3.26" rx="0.94" fill="#6d5a48" transform="rotate(315.0 317.97 154.97)"/><circle cx="322" cy="159" r="1.1" fill="#6d5a48"/><path d="M206 300 L206 273 Q238 226.6 270 273 L270 300 Z" fill="#6d5a48"/><path d="M211 300 L211 273 Q238 233.85 265 273 L265 300 Z" fill="#f8f4ed"/><path d="M148 300 L148 283 Q170 251.1 192 283 L192 300 Z" fill="#6d5a48"/><path d="M153 300 L153 283 Q170 258.35 187 283 L187 300 Z" fill="#f8f4ed"/><path d="M290 300 L290 283 Q312 251.1 334 283 L334 300 Z" fill="#6d5a48"/><path d="M295 300 L295 283 Q312 258.35 329 283 L329 300 Z" fill="#f8f4ed"/></g>
</svg>
