<svg xmlns="http://www.w3.org/2000/svg" viewBox="0 0 480 300" width="480" height="300" role="img" aria-label="L'Aquila">
  <defs>
    <linearGradient id="bg" x1="0" y1="0" x2="0" y2="1">
      <stop offset="0%" stop-color="#f8f4ed"/>
      <stop offset="100%" stop-color="#ebe4d8"/>
    </linearGradient>
  </defs>
  <rect width="480" height="300" fill="url(#bg)"/>
  <g fill="#a9967f" opacity="0.22"><path d="M0 300 L0 246 L54 200 L118 232 L186 194 L254 230 L320 198 L392 234 L446 206 L480 240 L480 300 Z"/></g>
  <g fill="#6d5a48"><rect x="118" y="124" width="244" height="176"/><path d="M130 130.4 L136.6 137 L130 143.6 L123.4 137 Z" fill="#f8f4ed"/><path d="M150 130.4 L156.6 137 L150 143.6 L143.4 137 Z" fill="#f8f4ed"/><path d="M170 130.4 L176.6 137 L170 143.6 L163.4 137 Z" fill="#f8f4ed"/><path d="M190 130.4 L196.6 137 L190 143.6 L183.4 137 Z" fill="#f8f4ed"/><path d="M210 130.4 L216.6 137 L210 143.6 L203.4 137 Z" fill="#f8f4ed"/><path d="M230 130.4 L236.6 137 L230 143.6 L223.4 137 Z" fill="#f8f4ed"/><path d="M250 130.4 L256.6 137 L250 143.6 L243.4 137 Z" fill="#f8f4ed"/><path d="M270 130.4 L276.6 137 L270 143.6 L263.4 137 Z" fill="#f8f4ed"/><path d="M290 130.4 L296.6 137 L290 143.6 L283.4 137 Z" fill="#f8f4ed"/><path d="M310 130.4 L316.6 137 L310 143.6 L303.4 137 Z" fill="#f8f4ed"/><path d="M330 130.4 L336.6 137 L330 143.6 L323.4 137 Z" fill="#f8f4ed"/><path d="M350 130.4 L356.6 137 L350 143.6 L343.4 137 Z" fill="#f8f4ed"/><path d="M140.0 144.8 L146.6 151.4 L140.0 158.0 L133.4 151.4 Z" fill="#f8f4ed"/><path d="M160.0 144.8 L166.6 151.4 L160.0 158.0 L153.4 151.4 Z" fill="#f8f4ed"/><path d="M180.0 144.8 L186.6 151.4 L180.0 158.0 L173.4 151.4 Z" fill="#f8f4ed"/><path d="M200.0 144.8 L206.6 151.4 L200.0 158.0 L193.4 151.4 Z" fill="#f8f4ed"/><path d="M220.0 144.8 L226.6 151.4 L220.0 158.0 L213.4 151.4 Z" fill="#f8f4ed"/><path d="M260.0 144.8 L266.6 151.4 L260.0 158.0 L253.4 151.4 Z" fill="#f8f4ed"/><path d="M280.0 144.8 L286.6 151.4 L280.0 158.0 L273.4 151.4 Z" fill="#f8f4ed"/><path d="M300.0 144.8 L306.6 151.4 L300.0 158.0 L293.4 151.4 Z" fill="#f8f4ed"/><path d="M320.0 144.8 L326.6 151.4 L320.0 158.0 L313.4 151.4 Z" fill="#f8f4ed"/><path d="M340.0 144.8 L346.6 151.4 L340.0 158.0 L333.4 151.4 Z" fill="#f8f4ed"/><path d="M130 159.20000000000002 L136.6 165.8 L130 172.4 L123.4 165.8 Z" fill="#f8f4ed"/><path d="M150 159.20000000000002 L156.6 165.8 L150 172.4 L143.4 165.8 Z" fill="#f8f4ed"/><path d="M170 159.20000000000002 L176.6 165.8 L170 172.4 L163.4 165.8 Z" fill="#f8f4ed"/><path d="M190 159.20000000000002 L196.6 165.8 L190 172.4 L183.4 165.8 Z" fill="#f8f4ed"/><path d="M210 159.20000000000002 L216.6 165.8 L210 172.4 L203.4 165.8 Z" fill="#f8f4ed"/><path d="M270 159.20000000000002 L276.6 165.8 L270 172.4 L263.4 165.8 Z" fill="#f8f4ed"/><path d="M290 159.20000000000002 L296.6 165.8 L290 172.4 L283.4 165.8 Z" fill="#f8f4ed"/><path d="M310 159.20000000000002 L316.6 165.8 L310 172.4 L303.4 165.8 Z" fill="#f8f4ed"/><path d="M330 159.20000000000002 L336.6 165.8 L330 172.4 L323.4 165.8 Z" fill="#f8f4ed"/><path d="M350 159.20000000000002 L356.6 165.8 L350 172.4 L343.4 165.8 Z" fill="#f8f4ed"/><path d="M140.0 173.60000000000002 L146.6 180.20000000000002 L140.0 186.8 L133.4 180.20000000000002 Z" fill="#f8f4ed"/><path d="M200.0 173.60000000000002 L206.6 180.20000000000002 L200.0 186.8 L193.4 180.20000000000002 Z" fill="#f8f4ed"/><path d="M280.0 173.60000000000002 L286.6 180.20000000000002 L280.0 186.8 L273.4 180.20000000000002 Z" fill="#f8f4ed"/><path d="M340.0 173.60000000000002 L346.6 180.20000000000002 L340.0 186.8 L333.4 180.20000000000002 Z" fill="#f8f4ed"/><path d="M130 188.00000000000003 L136.6 194.60000000000002 L130 201.20000000000002 L123.4 194.60000000000002 Z" fill="#f8f4ed"/><path d="M150 188.00000000000003 L156.6 194.60000000000002 L150 201.20000000000002 L143.4 194.60000000000002 Z" fill="#f8f4ed"/><path d="M210 188.00000000000003 L216.6 194.60000000000002 L210 201.20000000000002 L203.4 194.60000000000002 Z" fill="#f8f4ed"/><path d="M270 188.00000000000003 L276.6 194.60000000000002 L270 201.20000000000002 L263.4 194.60000000000002 Z" fill="#f8f4ed"/><path d="M330 188.00000000000003 L336.6 194.60000000000002 L330 201.20000000000002 L323.4 194.60000000000002 Z" fill="#f8f4ed"/><path d="M350 188.00000000000003 L356.6 194.60000000000002 L350 201.20000000000002 L343.4 194.60000000000002 Z" fill="#f8f4ed"/><path d="M140.0 202.40000000000003 L146.6 209.00000000000003 L140.0 215.60000000000002 L133.4 209.00000000000003 Z" fill="#f8f4ed"/><path d="M160.0 202.40000000000003 L166.6 209.00000000000003 L160.0 215.60000000000002 L153.4 209.00000000000003 Z" fill="#f8f4ed"/><path d="M180.0 202.40000000000003 L186.6 209.00000000000003 L180.0 215.60000000000002 L173.4 209.00000000000003 Z" fill="#f8f4ed"/><path d="M200.0 202.40000000000003 L206.6 209.00000000000003 L200.0 215.60000000000002 L193.4 209.00000000000003 Z" fill="#f8f4ed"/><path d="M220.0 202.40000000000003 L226.6 209.00000000000003 L220.0 215.60000000000002 L213.4 209.00000000000003 Z" fill="#f8f4ed"/><path d="M260.0 202.40000000000003 L266.6 209.00000000000003 L260.0 215.60000000000002 L253.4 209.00000000000003 Z" fill="#f8f4ed"/><path d="M280.0 202.40000000000003 L286.6 209.00000000000003 L280.0 215.60000000000002 L273.4 209.00000000000003 Z" fill="#f8f4ed"/><path d="M300.0 202.40000000000003 L306.6 209.00000000000003 L300.0 215.60000000000002 L293.4 209.00000000000003 Z" fill="#f8f4ed"/><path d="M320.0 202.40000000000003 L326.6 209.00000000000003 L320.0 215.60000000000002 L313.4 209.00000000000003 Z" fill="#f8f4ed"/><path d="M340.0 202.40000000000003 L346.6 209.00000000000003 L340.0 215.60000000000002 L333.4 209.00000000000003 Z" fill="#f8f4ed"/><path d="M130 216.80000000000004 L136.6 223.40000000000003 L130 230.00000000000003 L123.4 223.40000000000003 Z" fill="#f8f4ed"/><path d="M150 216.80000000000004 L156.6 223.40000000000003 L150 230.00000000000003 L143.4 223.40000000000003 Z" fill="#f8f4ed"/><path d="M170 216.80000000000004 L176.6 223.40000000000003 L170 230.00000000000003 L163.4 223.40000000000003 Z" fill="#f8f4ed"/><path d="M190 216.80000000000004 L196.6 223.40000000000003 L190 230.00000000000003 L183.4 223.40000000000003 Z" fill="#f8f4ed"/><path d="M210 216.80000000000004 L216.6 223.40000000000003 L210 230.00000000000003 L203.4 223.40000000000003 Z" fill="#f8f4ed"/><path d="M230 216.80000000000004 L236.6 223.40000000000003 L230 230.00000000000003 L223.4 223.40000000000003 Z" fill="#f8f4ed"/><path d="M250 216.80000000000004 L256.6 223.40000000000003 L250 230.00000000000003 L243.4 223.40000000000003 Z" fill="#f8f4ed"/><path d="M270 216.80000000000004 L276.6 223.40000000000003 L270 230.00000000000003 L263.4 223.40000000000003 Z" fill="#f8f4ed"/><path d="M290 216.80000000000004 L296.6 223.40000000000003 L290 230.00000000000003 L283.4 223.40000000000003 Z" fill="#f8f4ed"/><path d="M310 216.80000000000004 L316.6 223.40000000000003 L310 230.00000000000003 L303.4 223.40000000000003 Z" fill="#f8f4ed"/><path d="M330 216.80000000000004 L336.6 223.40000000000003 L330 230.00000000000003 L323.4 223.40000000000003 Z" fill="#f8f4ed"/><path d="M350 216.80000000000004 L356.6 223.40000000000003 L350 230.00000000000003 L343.4 223.40000000000003 Z" fill="#f8f4ed"/><path d="M140.0 231.20000000000005 L146.6 237.80000000000004 L140.0 244.40000000000003 L133.4 237.80000000000004 Z" fill="#f8f4ed"/><path d="M160.0 231.20000000000005 L166.6 237.80000000000004 L160.0 244.40000000000003 L153.4 237.80000000000004 Z" fill="#f8f4ed"/><path d="M180.0 231.20000000000005 L186.6 237.80000000000004 L180.0 244.40000000000003 L173.4 237.80000000000004 Z" fill="#f8f4ed"/><path d="M200.0 231.20000000000005 L206.6 237.80000000000004 L200.0 244.40000000000003 L193.4 237.80000000000004 Z" fill="#f8f4ed"/><path d="M220.0 231.20000000000005 L226.6 237.80000000000004 L220.0 244.40000000000003 L213.4 237.80000000000004 Z" fill="#f8f4ed"/><path d="M240.0 231.20000000000005 L246.6 237.80000000000004 L240.0 244.40000000000003 L233.4 237.80000000000004 Z" fill="#f8f4ed"/><path d="M260.0 231.20000000000005 L266.6 237.80000000000004 L260.0 244.40000000000003 L253.4 237.80000000000004 Z" fill="#f8f4ed"/><path d="M280.0 231.20000000000005 L286.6 237.80000000000004 L280.0 244.40000000000003 L273.4 237.80000000000004 Z" fill="#f8f4ed"/><path d="M300.0 231.20000000000005 L306.6 237.80000000000004 L300.0 244.40000000000003 L293.4 237.80000000000004 Z" fill="#f8f4ed"/><path d="M320.0 231.20000000000005 L326.6 237.80000000000004 L320.0 244.40000000000003 L313.4 237.80000000000004 Z" fill="#f8f4ed"/><path d="M340.0 231.20000000000005 L346.6 237.80000000000004 L340.0 244.40000000000003 L333.4 237.80000000000004 Z" fill="#f8f4ed"/><path d="M130 245.60000000000005 L136.6 252.20000000000005 L130 258.80000000000007 L123.4 252.20000000000005 Z" fill="#f8f4ed"/><path d="M150 245.60000000000005 L156.6 252.20000000000005 L150 258.80000000000007 L143.4 252.20000000000005 Z" fill="#f8f4ed"/><path d="M170 245.60000000000005 L176.6 252.20000000000005 L170 258.80000000000007 L163.4 252.20000000000005 Z" fill="#f8f4ed"/><path d="M190 245.60000000000005 L196.6 252.20000000000005 L190 258.80000000000007 L183.4 252.20000000000005 Z" fill="#f8f4ed"/><path d="M290 245.60000000000005 L296.6 252.20000000000005 L290 258.80000000000007 L283.4 252.20000000000005 Z" fill="#f8f4ed"/><path d="M310 245.60000000000005 L316.6 252.20000000000005 L310 258.80000000000007 L303.4 252.20000000000005 Z" fill="#f8f4ed"/><path d="M330 245.60000000000005 L336.6 252.20000000000005 L330 258.80000000000007 L323.4 252.20000000000005 Z" fill="#f8f4ed"/><path d="M350 245.60000000000005 L356.6 252.20000000000005 L350 258.80000000000007 L343.4 252.20000000000005 Z" fill="#f8f4ed"/><path d="M140.0 260.0 L146.6 266.6 L140.0 273.20000000000005 L133.4 266.6 Z" fill="#f8f4ed"/><path d="M340.0 260.0 L346.6 266.6 L340.0 273.20000000000005 L333.4 266.6 Z" fill="#f8f4ed"/><path d="M130 274.4 L136.6 281.0 L130 287.6 L123.4 281.0 Z" fill="#f8f4ed"/><path d="M350 274.4 L356.6 281.0 L350 287.6 L343.4 281.0 Z" fill="#f8f4ed"/><circle cx="240" cy="182" r="21" fill="#f8f4ed"/><circle cx="240" cy="182" r="7.1" fill="#6d5a48"/><circle cx="172" cy="188" r="11" fill="#f8f4ed"/><circle cx="308" cy="188" r="11" fill="#f8f4ed"/><path d="M210 300 L210 284 Q240 239.0 270 284 L270 300 Z" fill="#f8f4ed"/><path d="M154 300 L154 288 Q176 255.0 198 288 L198 300 Z" fill="#f8f4ed"/><path d="M282 300 L282 288 Q304 255.0 326 288 L326 300 Z" fill="#f8f4ed"/></g>
</svg>
