<svg xmlns="http://www.w3.org/2000/svg" viewBox="0 0 1600 226" width="1600" height="226" preserveAspectRatio="none" role="presentation"><defs><pattern id="chq" width="18" height="18" patternUnits="userSpaceOnUse" patternTransform="rotate(45)"><rect width="18" height="18" fill="#6d5a48"/><rect width="9" height="9" fill="#f8f4ed"/><rect x="9" y="9" width="9" height="9" fill="#f8f4ed"/></pattern></defs><g fill="#6d5a48"><rect x="550" y="16" width="300" height="210" fill="url(#chq)"/><rect x="668" y="74" width="64" height="64" fill="#6d5a48"/><circle cx="700" cy="106" r="22" fill="none" stroke="#f8f4ed" stroke-width="7"/><circle cx="700" cy="106" r="5" fill="#f8f4ed"/><path d="M664 226 L664 192 Q698 142.7 732 192 L732 226 Z" fill="#f8f4ed"/><path d="M588 226 L588 204 Q610 172.1 632 204 L632 226 Z" fill="#f8f4ed"/><path d="M768 226 L768 204 Q790 172.1 812 204 L812 226 Z" fill="#f8f4ed"/><rect x="470" y="160" width="96" height="66"/><rect x="900" y="148" width="92" height="78"/><rect x="1010" y="168" width="112" height="58"/><rect x="580" y="94" width="38" height="132"/><path d="M580 94 L599 66 L618 94 Z"/></g></svg>
