<svg xmlns="http://www.w3.org/2000/svg" viewBox="0 0 1600 250" width="1600" height="250" preserveAspectRatio="none" role="presentation"><g fill="#6d5a48"><rect x="154" y="164" width="192" height="86"/><path d="M150 166 C150 130 172 125 184 121 C196 125 218 130 218 166 Z"/><path d="M282 166 C282 130 304 125 316 121 C328 125 350 130 350 166 Z"/><rect x="200" y="128" width="100" height="38"/><path d="M192 128 C192 66 230 57 250 51 C270 57 308 66 308 128 Z"/><rect x="125" y="26" width="10" height="224"/><rect x="122" y="92" width="16" height="6"/><path d="M125 26 L130 6 L135 26 Z"/><rect x="161" y="26" width="10" height="224"/><rect x="158" y="92" width="16" height="6"/><path d="M161 26 L166 6 L171 26 Z"/><rect x="329" y="26" width="10" height="224"/><rect x="326" y="92" width="16" height="6"/><path d="M329 26 L334 6 L339 26 Z"/><rect x="365" y="26" width="10" height="224"/><rect x="362" y="92" width="16" height="6"/><path d="M365 26 L370 6 L375 26 Z"/><rect x="60" y="208" width="62" height="42"/><rect x="430" y="204" width="68" height="46"/><rect x="520" y="192" width="54" height="58"/></g></svg>
