<svg xmlns="http://www.w3.org/2000/svg" viewBox="0 0 480 300" width="480" height="300" role="img" aria-label="Munich">
  <defs>
    <linearGradient id="bg" x1="0" y1="0" x2="0" y2="1">
      <stop offset="0%" stop-color="#f8f4ed"/>
      <stop offset="100%" stop-color="#ebe4d8"/>
    </linearGradient>
  </defs>
  <rect width="480" height="300" fill="url(#bg)"/>
  <g fill="#a9967f" opacity="0.22"><path d="M0 300 L0 250 L52 214 L108 240 L168 206 L232 238 L300 210 L368 240 L428 218 L480 246 L480 300 Z"/></g>
  <g fill="#6d5a48"><rect x="166" y="248" width="148" height="52"/><rect x="180" y="162" width="32" height="138"/><path d="M179 162 C179 138.6 190.22 135.36 196 133.2 C201.78 135.36 213 138.6 213 162 Z"/><rect x="195.2" y="121.19999999999999" width="1.6" height="12"/><rect x="192.9" y="124.79999999999998" width="6.2" height="1.6"/><rect x="268" y="162" width="32" height="138"/><path d="M267 162 C267 138.6 278.22 135.36 284 133.2 C289.78 135.36 301 138.6 301 162 Z"/><rect x="283.2" y="121.19999999999999" width="1.6" height="12"/><rect x="280.9" y="124.79999999999998" width="6.2" height="1.6"/><rect x="324" y="204" width="26" height="96"/><path d="M324.0 204 L337 172 L350.0 204 Z"/><rect x="336.35" y="158" width="1.3" height="14"/></g>
</svg>
