<svg xmlns="http://www.w3.org/2000/svg" viewBox="0 0 480 300" width="480" height="300" role="img" aria-label="Turin">
  <defs>
    <linearGradient id="bg" x1="0" y1="0" x2="0" y2="1">
      <stop offset="0%" stop-color="#f8f4ed"/>
      <stop offset="100%" stop-color="#ebe4d8"/>
    </linearGradient>
  </defs>
  <rect width="480" height="300" fill="url(#bg)"/>
  <g fill="#a9967f" opacity="0.22"><path d="M0 300 L0 248 L48 204 L110 234 L172 196 L240 232 L302 200 L368 236 L430 208 L480 242 L480 300 Z"/></g>
  <g fill="#6d5a48"><rect x="146" y="256" width="188" height="44"/><rect x="206" y="184" width="48" height="72"/><path d="M206 184 L215 164 L245 164 L254 184 Z"/><path d="M215 164 L222 144 L238 144 L245 164 Z"/><path d="M222 144 L226 126 L234 126 L238 144 Z"/><rect x="229.2" y="80" width="1.6" height="46"/></g>
</svg>
